HIERARCHY
ROOT Hips
{
	OFFSET 0.0000 0.0000 0.0000
	CHANNELS 6 Xposition Yposition Zposition Zrotation Xrotation Yrotation
	JOINT Ab
	{
		OFFSET -0.0000 8.1305 -0.0000
		CHANNELS 3 Zrotation Xrotation Yrotation
		JOINT Chest
		{
			OFFSET -0.0000 26.2902 -0.0000
			CHANNELS 3 Zrotation Xrotation Yrotation
			JOINT Neck
			{
				OFFSET -0.0000 26.2902 0.0000
				CHANNELS 3 Zrotation Xrotation Yrotation
				JOINT Head
				{
					OFFSET -0.0000 10.8167 0.0000
					CHANNELS 3 Zrotation Xrotation Yrotation
					End Site
					{
						OFFSET -0.0000 16.7167 0.0000
					}
				}
			}
			JOINT LeftCollar
			{
				OFFSET -0.0000 26.2902 0.0000
				CHANNELS 3 Zrotation Xrotation Yrotation
				JOINT LeftShoulder
				{
					OFFSET 19.6667 -0.0000 0.0000
					CHANNELS 3 Zrotation Xrotation Yrotation
					JOINT LeftElbow
					{
						OFFSET 27.2190 0.0000 0.0000
						CHANNELS 3 Zrotation Xrotation Yrotation
						JOINT LeftWrist
						{
							OFFSET 30.7431 0.0000 0.0000
							CHANNELS 3 Zrotation Xrotation Yrotation
							End Site
							{
								OFFSET 0.0000 -14.7500 0.0000
							}
						}
					}
				}
			}
			JOINT RightCollar
			{
				OFFSET -0.0000 26.2902 0.0000
				CHANNELS 3 Zrotation Xrotation Yrotation
				JOINT RightShoulder
				{
					OFFSET -19.6667 0.0000 0.0000
					CHANNELS 3 Zrotation Xrotation Yrotation
					JOINT RightElbow
					{
						OFFSET -27.2190 0.0000 0.0000
						CHANNELS 3 Zrotation Xrotation Yrotation
						JOINT RightWrist
						{
							OFFSET -30.7431 0.0000 0.0000
							CHANNELS 3 Zrotation Xrotation Yrotation
							End Site
							{
								OFFSET -0.0000 -14.7500 0.0000
							}
						}
					}
				}
			}
		}
	}
	JOINT LeftHip
	{
		OFFSET 11.8000 0.0000 0.0000
		CHANNELS 3 Zrotation Xrotation Yrotation
		JOINT LeftKnee
		{
			OFFSET -0.0000 -39.7832 0.0000
			CHANNELS 3 Zrotation Xrotation Yrotation
			JOINT LeftAnkle
			{
				OFFSET -0.0000 -41.7317 0.0000
				CHANNELS 3 Zrotation Xrotation Yrotation
				End Site
				{
					OFFSET -0.0000 -4.9167 16.7167
				}
			}
		}
	}
	JOINT RightHip
	{
		OFFSET -11.8000 0.0000 0.0000
		CHANNELS 3 Zrotation Xrotation Yrotation
		JOINT RightKnee
		{
			OFFSET -0.0000 -39.7832 0.0000
			CHANNELS 3 Zrotation Xrotation Yrotation
			JOINT RightAnkle
			{
				OFFSET -0.0000 -41.7317 0.0000
				CHANNELS 3 Zrotation Xrotation Yrotation
				End Site
				{
					OFFSET -0.0000 -4.9167 16.7167
				}
			}
		}
	}
}
MOTION
Frames: 8
Frame Time: 0.010000
-4.9660 93.8669 95.1162 354.4158 344.4178 181.7594 358.2772 351.2870 3.1721 1.0842 7.5250 3.2294 352.3851 340.5966 357.9913 1.8681 8.9642 359.1440 337.9166 357.2168 14.2102 322.2929 37.8371 5.4397 351.1343 5.3916 298.7896 89.2278 357.4457 333.9630 25.1523 356.0300 342.3197 30.9036 48.6929 13.4921 336.5425 339.1531 82.8128 265.2008 352.8911 359.4901 350.1295 329.2907 3.9461 0.7952 27.0844 358.9812 350.9579 348.7931 11.8933 353.7212 1.4361 7.7957 8.8098 16.3330 14.7226 356.2428 345.1707 319.3431 
-4.9004 93.8390 94.4603 354.4587 344.5182 181.7727 358.2611 351.2771 3.1745 1.0153 7.5741 3.2317 352.3261 340.6211 357.9663 1.9885 8.9945 359.1198 337.8845 357.2361 14.1668 322.3266 37.5751 5.6639 350.9639 5.4592 298.8148 89.2207 357.3600 333.7202 25.1173 356.0512 342.2866 30.9656 48.7923 13.4955 336.4484 339.0963 82.8784 265.0938 352.8644 359.1202 349.9897 329.3366 3.7082 0.7885 26.0777 358.9055 350.8752 348.8681 12.0314 353.8310 1.8932 7.5722 8.7286 16.3389 14.7155 356.6309 345.2650 319.6234 
-4.7206 93.8628 91.9480 354.5940 345.0003 181.9269 358.2025 351.3478 3.1216 0.8198 7.7596 3.2045 352.1073 340.6458 357.8862 2.4865 9.3376 359.0292 337.7504 357.2374 13.9257 322.4691 36.5286 6.7317 350.4623 5.8978 298.7608 89.7138 357.1304 333.6986 24.9179 356.0625 342.1676 31.3107 49.1876 13.4570 336.1849 338.7459 82.8340 265.6189 352.7247 358.1994 349.3978 330.3123 2.3559 0.7557 22.3677 358.9911 350.1764 348.5347 12.1661 353.9915 3.4233 6.7066 8.5018 16.6499 14.2033 358.7968 346.4081 321.4349 
-4.6028 93.7810 90.6621 354.6939 345.1667 181.9844 358.0648 351.3235 3.1415 0.8873 7.8298 3.2280 352.0215 340.5021 357.8346 2.5762 9.6529 358.9830 337.7264 357.2444 14.0031 322.4972 36.3070 6.9423 350.2813 5.9114 298.7335 89.4644 357.1026 333.3151 24.7690 356.0529 342.0050 31.4758 49.2926 13.4653 336.1026 338.7852 82.8935 265.3479 352.9229 357.5603 349.2659 330.6539 1.4330 0.5523 20.8362 359.2883 350.0637 348.4015 12.2480 354.1596 4.0219 6.5688 8.4552 17.0937 14.4705 359.1705 347.1782 321.6361 
-4.5302 93.6830 89.9593 354.7646 345.2797 181.9990 358.0286 351.2961 3.1501 0.8644 7.8486 3.2376 351.9524 340.5988 357.7856 2.6881 9.6877 358.9327 337.5253 357.2050 13.9150 323.0272 35.9857 7.0473 349.7837 6.2795 298.5623 89.6038 357.1866 333.1598 24.7771 356.0188 341.9500 31.5874 49.2571 13.2821 336.1808 338.8868 83.0421 265.2323 352.9715 357.3098 349.2192 330.7815 1.0201 0.3595 20.0378 0.0667 349.9300 348.5127 12.0004 354.2932 4.3673 6.5427 8.4697 17.3748 14.3247 359.3814 347.2861 321.9010 
-4.3224 93.4187 87.5987 354.9755 345.7720 182.1170 357.8739 351.3600 3.1041 0.9362 7.7890 3.2024 351.5054 341.0351 357.6300 3.2957 9.8927 358.7627 337.1807 357.1851 13.6030 323.6829 35.4035 7.8261 349.0493 6.9251 298.0542 89.7487 357.2869 333.0260 24.7650 355.9815 341.7273 31.8770 49.3874 12.8243 336.2928 339.0182 83.0825 265.2755 352.9827 356.7798 349.0834 331.8220 359.1185 0.0268 18.0019 1.4789 349.3758 348.4267 11.8611 354.5795 5.2300 6.2841 8.4125 18.9681 14.3869 0.3540 348.2221 322.5973 
-4.2508 93.2690 86.8511 355.0541 345.9483 182.1101 357.8369 351.3513 3.1167 0.9140 7.8400 3.2206 351.5529 341.0929 357.6469 3.2912 9.9609 358.7670 337.1578 357.2013 13.6750 323.8414 35.4394 7.7451 348.8903 6.8399 298.0255 89.4190 357.3717 332.6980 24.7768 355.9596 341.7347 32.0649 49.3607 12.5330 336.4585 339.1439 83.2425 265.1736 353.0221 356.7785 349.0790 332.0682 358.7804 359.9801 17.4378 1.5819 349.4672 348.3695 12.0101 354.7168 5.5224 6.2668 8.4658 19.5513 14.3181 0.4918 348.2414 322.8839 
-4.0461 92.8009 84.4229 355.2844 346.7003 182.1905 357.7597 351.5708 3.0532 0.8074 7.8664 3.1629 351.9490 341.2832 357.6865 3.0057 10.3605 358.7302 337.3789 357.2394 13.7238 323.7941 35.6795 7.9956 348.9102 6.7460 297.6034 88.9417 357.3420 332.5695 24.9134 355.9114 341.6354 32.6893 49.2188 11.4451 336.8460 339.5252 83.6490 264.6417 353.3781 356.5356 349.0667 333.4580 357.2251 359.6879 16.1657 2.7510 349.4399 348.1244 12.2839 354.9882 6.2419 6.2543 8.7143 22.0989 14.2212 0.8092 348.9644 323.7230 
